<svg width="123" height="158" viewBox="0 0 123 158" fill="none" xmlns="http://www.w3.org/2000/svg">
<g clip-path="url(#clip0_108_1160)">
<path d="M33.138 65.728L37.7656 78.7192L53.3213 88.3444L62.952 90.5423L70.0315 68.1302L63.059 52.6882L54.8832 52.7891L37.2664 60.0943L33.138 65.728Z" fill="#FFBBBC"/>
<path d="M77.4282 38.081L75.9708 47.8935L76.2396 57.4628L78.4034 59.8766L81.5225 60.2432L83.2857 57.5686L84.7935 50.7189L86.3433 50.9681L94.1841 67.5544L90.3397 72.3175L84.661 80.7298L83.031 88.6192L83.4207 96.4539L86.5945 105.591L92.2155 112.548L99.962 116.905L107.753 118.5L115.835 117.421L125.191 112.548L133.158 103.177L135.14 92.0519L132.798 81.9901L129.367 74.7336L123.24 68.9564L114.755 65.1126L106.424 64.7138L102.153 64.0736L96.5839 54.0233L93.0818 46.2689L94.4565 45.4554L101.065 48.8772L103.703 48.5714L105.404 46.4579L104.702 42.2895L100.015 38.0001L87.946 28.5675L82.0064 26.3021L79.4996 28.1827L77.4282 38.081Z" fill="#F41870"/>
<path d="M103.945 49.6025C104.741 49.1979 105.397 48.5645 105.83 47.7839C106.263 47.0033 106.453 46.1111 106.375 45.2219C106.316 39.6447 98.1801 35.6763 94.3084 32.6788C91.1741 29.5721 87.3549 27.2438 83.1576 25.8808C79.3509 25.1846 78.1307 28.7481 77.4017 31.793C75.024 39.6645 74.1626 47.9159 74.8633 56.1088C73.5494 54.0765 71.9837 52.2185 70.2036 50.579C65.1407 46.2524 58.8256 43.6604 52.183 43.1827C46.7858 43.6974 41.579 45.4449 36.9642 48.2906C31.7785 51.6821 27.9656 56.8049 26.205 62.7458C22.4561 73.6825 28.752 88.2989 38.5311 94.2725C43.0587 97.1996 48.428 98.5456 53.801 98.1004C55.8402 97.9137 58.2868 96.5117 59.8214 98.2001C61.8257 101.228 63.3855 104.527 64.4532 107.998C64.7536 108.633 66.4687 111.137 66.2553 111.81C66.0419 112.484 63.346 113.186 62.9113 113.391C60.9498 114.016 59.1594 115.087 57.6801 116.519C56.4471 118.411 58.3495 122.175 59.5375 123.823C61.7203 126.883 64.2994 124.722 66.9886 123.574C67.6908 123.242 70.6001 121.867 71.3547 122.164C72.1092 122.462 72.6302 124.344 73.0115 125.063C73.8809 126.903 75.0507 129.377 77.2936 129.708C78.6867 129.916 80.1083 129.618 81.3 128.867C82.4917 128.116 83.3742 126.962 83.7871 125.615C83.9397 123.948 80.9446 117.958 82.0147 117.452C84.9331 115.664 90.3012 115.335 89.5393 110.868C92.8078 114.327 96.9238 116.871 101.479 118.249C106.034 119.626 110.871 119.789 115.508 118.721C126.378 115.751 136.466 104.722 136.064 92.9657C135.428 82.015 129.942 69.7164 118.62 65.4129C116.154 64.423 113.55 63.8187 110.9 63.6212C108.322 63.4485 104.226 64.6487 102.236 62.6028C100.367 59.7596 98.8088 56.7244 97.5874 53.5491C96.2019 51.4921 95.1359 49.2372 94.4257 46.861C97.1575 47.5335 100.638 51.0021 103.945 49.6025ZM61.0113 86.2638C53.0227 83.126 43.0552 81.9464 38.0629 74.2419C35.629 70.5647 34.7717 64.4239 39.2004 61.6757C43.6291 58.9275 48.9619 63.1981 52.0943 66.7087C49.7073 61.6593 54.091 51.1998 60.796 55.5172C61.8073 56.3089 62.6197 57.3258 63.1686 58.4869C63.7175 59.648 63.9877 60.9213 63.9576 62.2052C64.1736 66.4745 63.8457 70.7539 62.9818 74.9404C62.4018 78.7331 61.6406 82.4888 60.9797 86.1969L61.0113 86.2638ZM85.3484 104.339C84.0547 104.142 82.7337 104.431 81.6408 105.151C80.4704 105.704 78.4597 107.596 77.1878 107.501C74.7759 107.332 73.3531 102.072 72.4362 100.133C71.1072 98.0357 70.1191 95.741 69.5087 93.3343C69.4309 91.6118 71.1242 90.6068 72.2563 89.5397C73.9117 87.8817 75.3385 86.0102 76.4989 83.9747C78.4639 80.4282 79.5956 76.4809 79.8082 72.432C80.0208 68.3831 79.3086 64.3389 77.7258 60.6062C84.1062 63.8906 84.6795 55.1506 85.3757 51.3439C87.091 53.7319 88.4332 56.3669 89.3562 59.1585C90.7092 61.5005 91.867 63.9499 92.8182 66.4819C93.2463 68.0797 93.1514 67.879 92.0315 69.1449C91.3201 69.8903 90.6264 70.5865 89.9643 71.3495C88.3999 73.0296 87.0222 74.8743 85.8554 76.8513C83.5829 81.0599 82.3511 85.7515 82.2629 90.5336C82.1747 95.3157 83.2327 100.049 85.3484 104.339V104.339ZM97.563 57.6518C98.2641 60.0449 99.4419 62.2714 101.026 64.1976C102.826 65.8422 105.105 65.2968 107.355 65.2968C111.602 65.16 115.821 66.0417 119.658 67.868C124.027 70.3485 127.638 73.9718 130.103 78.349C132.569 82.7262 133.796 87.6921 133.653 92.714C133.5 97.3442 132.063 101.841 129.504 105.702C126.944 109.563 123.362 112.638 119.157 114.582C115.039 116.748 110.367 117.627 105.744 117.106C101.121 116.585 96.7605 114.688 93.2281 111.661C89.8561 108.646 87.2623 104.862 85.6675 100.629C84.0727 96.3967 83.5241 91.8416 84.0685 87.3515C84.8152 81.8854 87.3332 76.8148 91.2368 72.9163C92.4589 71.5204 95.3299 69.6313 95.2083 67.6431C94.7921 66.2004 94.1462 64.8342 93.2955 63.5969C92.5683 62.0586 91.8411 60.5204 91.0982 58.9487C89.9126 56.4407 88.7148 51.4837 86.2335 49.9564C83.7523 48.4291 83.016 51.8047 82.9917 53.6573C82.9674 55.5099 82.45 60.214 78.9971 59.2278C75.5443 58.2416 76.7354 53.7509 76.818 51.5026C77.1964 44.8694 78.0719 38.2739 79.4373 31.7717C79.5522 31.0628 79.9644 28.1267 81.5166 27.5157C83.6951 27.0177 86.8762 29.0734 88.6819 30.47C91.2088 32.1803 93.4961 34.2493 95.9032 36.1389C98.3102 38.0286 106.305 42.391 104.359 46.5838C102.414 50.7766 96.5762 43.8806 93.6639 44.6437C89.9016 45.6858 96.7447 55.7476 97.5576 57.8999L97.563 57.6518Z" fill="#361041"/>
<path d="M106.7 81.4806C106.546 82.4809 106.491 83.4938 106.534 84.5048C101.642 79.0031 90.2794 80.3243 89.8946 88.7706C89.5097 97.217 98.876 102.404 105.945 104.462C109.579 105.486 113.252 106.245 116.943 106.955C118.855 107.279 118.572 106.594 119.006 104.916L119.867 101.891C120.135 100.987 120.354 100.065 120.557 99.1096C121.851 94.2282 122.583 89.215 122.74 84.1674C122.652 79.9132 120.543 74.2412 115.813 73.4088C111.083 72.5765 107.39 77.2271 106.7 81.4806Z" fill="#361041"/>
<path d="M116.317 103.814C116.317 103.814 89.2182 98.4183 93.6809 88.1261C97.428 79.5222 109.091 90.0874 109.091 90.0874C109.091 90.0874 107.818 75.797 115.917 77.6964C124.015 79.5957 116.317 103.814 116.317 103.814Z" fill="#FFBBBC"/>
</g>
<defs>
<clipPath id="clip0_108_1160">
<rect width="118.362" height="118.362" fill="white" transform="translate(0 50.5858) rotate(-25.3015)"/>
</clipPath>
</defs>
</svg>
