<svg width="56" height="72" viewBox="0 0 56 72" fill="none" xmlns="http://www.w3.org/2000/svg">
<path d="M18.3212 41.3344C15.8299 36.2602 11.2304 30.9755 5.08637 32.631C-1.05769 34.2864 -0.939659 42.6849 2.05283 47.2177C5.10151 51.3433 8.56895 55.1423 12.3998 58.554C13.6013 59.7351 14.8636 60.8906 16.1609 61.9596C17.4582 63.0286 19.7416 65.463 21.8021 65.8654C24.4161 66.3914 26.8954 59.9006 27.8562 58.0262C29.7603 54.3206 31.445 50.4859 33.069 46.6768C34.6931 42.8678 35.914 38.986 37.2645 35.1567C39.4167 29.0263 41.8108 22.2494 41.5169 15.6007C41.5848 14.133 41.24 12.6757 40.5216 11.394C39.8033 10.1124 38.7401 9.05771 37.4527 8.34969C36.144 7.73004 34.7121 7.41473 33.2642 7.4274C31.8163 7.44008 30.39 7.78041 29.0924 8.42288C26.1352 9.91082 24.59 13.128 23.4201 16.0646C22.026 19.7742 20.9279 23.5883 20.136 27.4712C19.268 32.054 18.6621 36.6826 18.3212 41.3344Z" fill="#361041"/>
<path d="M21.661 61.4215C23.9682 61.2397 43.7916 13.4135 34.6429 10.9135C25.4943 8.41354 22.1287 46.3886 20.1742 47.0655C18.2197 47.7424 10.5953 31.6739 4.91232 37.0577C-0.770615 42.4415 19.2914 61.6082 21.661 61.4215Z" fill="#F41870"/>
</svg>
