<svg width="163" height="12" viewBox="0 0 163 12" fill="none" xmlns="http://www.w3.org/2000/svg">
<path d="M156.176 10.1564C155.567 10.1005 155.019 10.1005 154.409 10.0446C153.617 9.98875 152.825 9.87701 151.972 9.82114C150.632 9.70941 149.292 9.48594 148.012 9.20659C146.611 8.87139 145.271 8.42444 143.991 7.80989C143.747 7.69816 143.504 7.53055 143.199 7.47468C142.894 7.36295 142.651 7.25121 142.346 7.13947C141.92 6.97187 141.554 6.86013 141.128 6.7484C140.64 6.63666 140.153 6.52493 139.665 6.46906C139.239 6.41319 138.812 6.41319 138.386 6.41319C137.959 6.41319 137.594 6.46906 137.167 6.46906C136.619 6.52493 136.071 6.63666 135.522 6.80427C134.974 6.97187 134.426 7.13947 133.877 7.36295C132.963 7.75402 132.05 8.20097 131.136 8.64791C130.709 8.87139 130.344 9.09486 129.917 9.3742C129.43 9.65354 128.942 9.93288 128.455 10.2122C128.089 10.4357 127.663 10.6033 127.236 10.7709C126.993 10.8826 126.688 10.9385 126.383 10.9944C126.079 11.0502 125.835 11.0502 125.53 11.1061C125.348 11.1061 125.165 11.1061 125.043 11.0502C124.799 10.9944 124.556 10.9385 124.312 10.8826C123.946 10.7709 123.581 10.6033 123.215 10.4357C122.484 10.1005 121.814 9.76528 121.083 9.43007C120.169 8.98312 119.316 8.59205 118.341 8.20097C117.793 7.9775 117.184 7.80989 116.635 7.64229C115.843 7.41882 115.112 7.30708 114.32 7.19534C113.589 7.08361 112.797 7.08361 112.066 7.02774C111.213 7.02774 110.36 7.08361 109.507 7.19534C108.41 7.36295 107.375 7.53055 106.278 7.75402C105.303 7.9775 104.328 8.25684 103.414 8.59205C102.5 8.98312 101.587 9.3742 100.673 9.82114C99.6369 10.324 98.6012 10.8268 97.5045 11.162C97.078 11.3296 96.6516 11.3855 96.1641 11.4972C95.6767 11.6089 95.1284 11.6089 94.5801 11.6089C94.0317 11.6089 93.5443 11.4972 92.996 11.3855C92.4477 11.2737 91.9602 11.0502 91.4728 10.8268C90.3152 10.2681 89.2795 9.5418 88.2438 8.81552C87.6345 8.36857 87.0252 7.92163 86.416 7.47468C85.9286 7.13947 85.3802 6.7484 84.8319 6.41319C84.2836 6.07798 83.6743 5.79864 83.065 5.5193C82.7604 5.40756 82.5167 5.29583 82.2121 5.23996C81.8465 5.12822 81.42 5.07235 81.0545 5.01649C80.8717 5.01649 80.7498 5.01649 80.5671 5.01649C80.4452 5.01649 80.3234 5.01649 80.2015 5.01649C79.8969 5.07235 79.5923 5.18409 79.2876 5.29583C78.191 5.79864 77.1552 6.41319 76.1804 7.08361C75.693 7.41882 75.2665 7.75402 74.84 8.1451C74.5354 8.42444 74.2308 8.64791 73.9261 8.92725C73.1341 9.59767 72.403 10.3798 71.55 10.9944C71.1845 11.2178 70.8189 11.4413 70.3924 11.6648C70.1487 11.7765 69.905 11.8324 69.6613 11.8883C69.6004 11.8883 69.4785 11.9441 69.4176 11.9441C69.2348 11.9441 69.052 12 68.9302 12C68.8693 12 68.7474 12 68.6865 12H68.6256C68.5037 12 68.3209 12 68.1991 11.9441C67.8945 11.8883 67.6507 11.8324 67.3461 11.7765C66.7978 11.6089 66.2495 11.4413 65.7011 11.2178C65.2746 11.0502 64.8482 10.8826 64.4217 10.6592C64.117 10.5474 63.8124 10.3798 63.5078 10.2681C63.0204 10.0446 62.5939 9.82114 62.1065 9.59767C61.8628 9.48594 61.6191 9.3742 61.4363 9.26246C61.0098 9.03899 60.5833 8.75965 60.2178 8.53618C59.9131 8.36857 59.6085 8.20097 59.3039 7.9775C58.5118 7.53055 57.7807 7.02774 56.9887 6.58079C55.3437 5.57517 53.6378 4.56954 51.81 3.84326C51.3835 3.67565 51.0179 3.56392 50.5915 3.39631C50.104 3.22871 49.5557 3.11697 49.0074 3.0611C48.7637 3.0611 48.5809 3.00523 48.3372 3.00523C47.9716 3.00523 47.667 3.00523 47.3015 3.0611C46.814 3.11697 46.3266 3.22871 45.9002 3.39631C45.4127 3.61978 44.9253 3.89912 44.4989 4.17846C43.7677 4.68128 43.1585 5.29583 42.5492 5.91038C42.2446 6.18972 41.94 6.52493 41.6353 6.80427C41.2698 7.13947 40.8433 7.47468 40.4777 7.80989C40.1122 8.08923 39.8075 8.31271 39.3811 8.48031C39.0155 8.36857 38.7718 8.48031 38.5281 8.53618C38.2844 8.59205 38.0407 8.64791 37.797 8.64791C37.6142 8.64791 37.4924 8.64791 37.3096 8.59205C37.0659 8.53618 36.8831 8.48031 36.6394 8.36857C36.4566 8.25684 36.2129 8.1451 36.0301 8.03336C35.8474 7.86576 35.6646 7.69816 35.5427 7.53055C35.2381 7.19534 34.9335 6.86013 34.6898 6.52493C34.4461 6.24558 34.2024 6.02211 34.0196 5.74277C33.7759 5.46343 33.4712 5.12822 33.2275 4.84888C32.6792 4.23433 32.0699 3.73152 31.3998 3.22871C30.9123 2.8935 30.364 2.61416 29.8157 2.33482C29.2673 2.16721 28.7799 2.05548 28.2316 1.94374C27.4396 1.88787 26.7085 1.88787 25.9164 1.94374C24.6979 2.11135 23.5403 2.44655 22.3827 2.8935C21.347 3.34044 20.3721 3.78739 19.3973 4.34607C18.9099 4.62541 18.4225 4.90475 17.9351 5.23996C17.4477 5.5193 16.9603 5.85451 16.4729 6.13385C15.9855 6.46906 15.4981 6.7484 15.0107 7.02774C14.5232 7.30708 13.9749 7.58642 13.4266 7.80989C12.3908 8.25684 11.2942 8.53618 10.1975 8.48031C9.95379 8.48031 9.64916 8.42444 9.40546 8.42444C9.10083 8.36857 8.85712 8.31271 8.61342 8.25684C8.36971 8.20097 8.12601 8.08923 7.94323 8.03336C7.69953 7.92163 7.45582 7.80989 7.21212 7.75402C5.93267 7.36295 4.89693 6.80427 3.92211 6.18972C3.06915 5.63104 2.21618 5.01649 1.48507 4.2902C1.11952 3.95499 0.814886 3.61978 0.510256 3.28458C0.388404 3.11697 0.266551 2.94937 0.205625 2.72589C0.205625 2.67003 0.144699 2.55829 0.144699 2.50242C0.0837733 2.33482 0.0837733 2.16721 0.0228473 1.99961C-0.0380788 1.77614 0.0228473 1.55266 0.205625 1.38506C0.388404 1.27332 0.632108 1.21745 0.875812 1.27332C1.05859 1.32919 1.18044 1.38506 1.36322 1.38506C1.60692 1.44093 1.7897 1.55266 2.03341 1.6644C2.33804 1.832 2.45989 2.22308 2.27711 2.50242C2.15526 2.67003 2.03341 2.72589 1.85063 2.78176C2.45989 3.39631 3.13007 3.95499 3.80026 4.51367C4.95786 5.29583 6.17638 5.91038 7.45582 6.46906C7.76045 6.58079 8.06508 6.69253 8.36971 6.80427C8.73527 6.86013 9.16175 6.97187 9.52731 7.02774C9.89287 7.08361 10.1975 7.08361 10.5631 7.02774C10.8068 6.97187 10.9895 6.97187 11.2332 6.916C11.5988 6.80427 11.9034 6.69253 12.2081 6.58079C12.8173 6.30145 13.4266 6.02211 13.9749 5.6869C14.6451 5.29583 15.2544 4.84888 15.9245 4.40194C16.5338 4.01086 17.204 3.56392 17.8742 3.17284C18.5444 2.78176 19.2145 2.39069 19.8847 2.05548C21.2251 1.38506 22.6264 0.826378 24.0277 0.435302C25.4899 0.0442247 27.074 -0.12338 28.6581 0.100093C29.3892 0.211829 30.0594 0.379433 30.7296 0.602905C31.3998 0.882246 32.009 1.16159 32.5574 1.55266C33.1666 1.94374 33.7149 2.44655 34.2633 2.94937C34.5679 3.22871 34.8116 3.50805 35.0553 3.78739C35.4209 4.23433 35.7864 4.62541 36.152 5.07235C36.5785 5.57517 37.005 6.13385 37.5533 6.63666C37.6142 6.63666 37.6142 6.69253 37.6751 6.69253C37.7361 6.69253 37.797 6.7484 37.8579 6.7484H37.9188C38.0407 6.7484 38.1016 6.69253 38.2235 6.69253C38.4672 6.58079 38.7109 6.46906 38.9546 6.30145C39.6248 5.85451 40.1731 5.29583 40.7214 4.73715C41.4526 4.06673 42.1837 3.34044 42.9757 2.72589C43.3413 2.44655 43.7068 2.22308 44.0724 1.99961C44.4989 1.72027 44.9863 1.55266 45.4737 1.38506C45.9002 1.21745 46.3876 1.16159 46.875 1.04985C47.4233 0.993982 48.0326 0.938114 48.5809 0.993982C49.0683 0.993982 49.5557 1.10572 49.9822 1.16159C50.5305 1.27332 51.0789 1.44093 51.6272 1.60853C52.6629 1.94374 53.6378 2.39069 54.5517 2.83763C55.9529 3.50805 57.2324 4.34607 58.5118 5.12822C59.1211 5.5193 59.7304 5.91038 60.4006 6.30145C61.1317 6.7484 61.8628 7.13947 62.5939 7.58642C62.6548 7.64229 62.7767 7.69816 62.8376 7.69816C63.0813 7.80989 63.325 7.92163 63.5687 8.08923C63.9343 8.25684 64.2998 8.48031 64.7263 8.64791C64.7872 8.70378 64.9091 8.70378 64.97 8.75965C65.2137 8.87139 65.5183 8.98312 65.762 9.09486C66.1885 9.26246 66.6759 9.48594 67.1024 9.65354C67.5289 9.82114 68.0163 9.93288 68.5037 10.0446C68.6256 10.0446 68.6865 10.0446 68.8083 10.0446C68.8693 10.0446 68.9911 10.0446 69.052 10.0446C69.2348 9.98875 69.4176 9.93288 69.6613 9.87701C69.9659 9.70941 70.2706 9.5418 70.5752 9.31833C71.4891 8.59205 72.2811 7.80989 73.1341 7.08361C73.6824 6.63666 74.2308 6.18972 74.7791 5.74277C75.3274 5.3517 75.8758 5.01649 76.4241 4.62541C77.0334 4.23433 77.6426 3.95499 78.2519 3.61978C78.8002 3.34044 79.4704 3.17284 80.0797 3.0611C80.3843 3.00523 80.628 3.00523 80.9326 3.0611C81.2982 3.0611 81.6637 3.11697 82.0293 3.22871C82.6386 3.34044 83.2478 3.50805 83.7962 3.73152C84.4663 4.01086 85.0756 4.2902 85.6849 4.62541C86.5378 5.12822 87.2689 5.6869 88.061 6.24558C88.4875 6.58079 88.9749 6.916 89.4013 7.25121C89.7669 7.53055 90.1325 7.75402 90.498 8.03336C91.2901 8.59205 92.0821 9.03899 92.996 9.43007C93.4225 9.59767 93.849 9.70941 94.3364 9.76528C94.5801 9.76528 94.7628 9.82114 95.0065 9.82114C95.1893 9.82114 95.3721 9.82114 95.6158 9.76528C96.3469 9.65354 97.0171 9.48594 97.6873 9.26246C98.2356 9.03899 98.8449 8.75965 99.3932 8.53618C99.7588 8.36857 100.063 8.20097 100.429 8.03336C100.734 7.86576 101.099 7.69816 101.465 7.53055C102.135 7.25121 102.805 6.97187 103.475 6.69253C104.206 6.41319 104.937 6.24559 105.669 6.07798C107.253 5.6869 108.837 5.46343 110.421 5.29583C111.213 5.18409 112.066 5.18409 112.858 5.18409C113.65 5.18409 114.442 5.29583 115.234 5.40756C116.635 5.57517 118.037 5.96624 119.377 6.46906C120.23 6.80427 121.022 7.19534 121.875 7.58642C122.85 8.03336 123.825 8.53618 124.86 8.98312C125.043 9.03899 125.287 9.09486 125.47 9.15073C125.591 9.15073 125.713 9.15073 125.835 9.15073C126.14 9.09486 126.383 9.03899 126.688 8.92725C127.602 8.53618 128.394 7.9775 129.247 7.47468C130.1 6.916 131.014 6.46906 131.928 6.02211C132.842 5.57517 133.816 5.23996 134.791 4.90475C135.888 4.56954 137.046 4.40194 138.203 4.34607C139.239 4.2902 140.275 4.40194 141.249 4.62541C142.102 4.79301 142.955 5.12822 143.747 5.46343C144.113 5.63104 144.418 5.74277 144.783 5.91038C145.027 6.02211 145.21 6.13385 145.453 6.24558C145.758 6.41319 146.123 6.52493 146.428 6.69253C148.073 7.30708 149.779 7.64229 151.546 7.86576C152.46 7.9775 153.435 8.03336 154.409 8.1451C155.201 8.20097 156.054 8.25684 156.846 8.31271C158.491 8.42444 160.197 8.53618 161.842 8.48031C162.513 8.48031 163 8.98312 163 9.5418C163 10.1005 162.452 10.6033 161.842 10.6033C160.563 10.6033 159.284 10.4916 158.065 10.4357C157.395 10.2681 156.786 10.2122 156.176 10.1564ZM125.287 9.09486C125.348 9.09486 125.348 9.09486 125.409 9.09486C125.348 9.09486 125.287 9.09486 125.287 9.09486Z" fill="#24232C"/>
</svg>
